<svg width="14" height="14" viewBox="0 0 14 14" fill="none" xmlns="http://www.w3.org/2000/svg">
<path fill-rule="evenodd" clip-rule="evenodd" d="M0.36358 13.6364C0.0121076 13.2849 0.0121076 12.7151 0.363579 12.3636L5.72718 7L0.36358 1.6364C0.0121078 1.28493 0.0121078 0.715077 0.36358 0.363606C0.715052 0.0121346 1.2849 0.0121346 1.63637 0.363606L6.99997 5.72721L12.3636 0.363605C12.7151 0.0121336 13.2849 0.0121336 13.6364 0.363605C13.9878 0.715077 13.9878 1.28493 13.6364 1.6364L8.27277 7L13.6364 12.3636C13.9878 12.7151 13.9878 13.2849 13.6364 13.6364C13.2849 13.9879 12.7151 13.9879 12.3636 13.6364L6.99998 8.27279L1.63637 13.6364C1.2849 13.9879 0.715051 13.9879 0.36358 13.6364Z" fill="#344054"/>
</svg>
